<?xml version="1.0" standalone="no"?><!DOCTYPE svg PUBLIC "-//W3C//DTD SVG 1.1//EN" "http://www.w3.org/Graphics/SVG/1.1/DTD/svg11.dtd"><svg t="1738145877304" class="icon" viewBox="0 0 1024 1024" version="1.1" xmlns="http://www.w3.org/2000/svg" p-id="25965" xmlns:xlink="http://www.w3.org/1999/xlink" width="128" height="128"><path d="M469.332942 469.332942V298.751751a42.623964 42.623964 0 1 1 85.333262 0V469.332942h170.581192a42.623964 42.623964 0 1 1 0 85.333262H554.666204v170.581192a42.623964 42.623964 0 1 1-85.333262 0V554.666204H298.751751a42.623964 42.623964 0 1 1 0-85.333262H469.332942z m477.866269 312.533073a42.666631 42.666631 0 0 1-72.533273-45.055962A424.959646 424.959646 0 0 0 938.665884 511.999573c0-235.647804-191.018507-426.666311-426.666311-426.666311S85.333262 276.35177 85.333262 511.999573s191.018507 426.666311 426.666311 426.666311a424.447646 424.447646 0 0 0 225.578479-64.426613 42.666631 42.666631 0 0 1 45.183962 72.405273A509.780909 509.780909 0 0 1 511.999573 1023.999147C229.247809 1023.999147 0 794.751338 0 511.999573S229.247809 0 511.999573 0s511.999573 229.247809 511.999574 511.999573a510.719574 510.719574 0 0 1-76.799936 269.866442z" fill="#2c2c2c" p-id="25966"></path></svg>