<?xml version="1.0" standalone="no"?><!DOCTYPE svg PUBLIC "-//W3C//DTD SVG 1.1//EN" "http://www.w3.org/Graphics/SVG/1.1/DTD/svg11.dtd"><svg t="1738204490933" class="icon" viewBox="0 0 1024 1024" version="1.1" xmlns="http://www.w3.org/2000/svg" p-id="5531" xmlns:xlink="http://www.w3.org/1999/xlink" width="128" height="128"><path d="M513.1 139.1c-206.7 0-374.2 167.5-374.2 374s167.6 374 374.2 374c206.7 0 374.2-167.5 374.2-374s-167.5-374-374.2-374z m0 689c-173.8 0-315.2-141.3-315.2-315s141.4-315 315.2-315c173.8 0 315.2 141.3 315.2 315s-141.4 315-315.2 315z" fill="#bfbfbf" p-id="5532"></path><path d="M666 375.8l-13.9-13.9c-3.8-3.8-8.9-5.8-13.9-5.8s-10.1 1.9-13.9 5.8L512.8 473.3 401.5 361.9c-3.9-3.8-8.9-5.8-13.9-5.8s-10.1 1.9-13.9 5.8l-13.9 13.9c-7.7 7.7-7.7 20.2 0 27.9l111.4 111.4-111.5 111.4c-7.7 7.7-7.7 20.2 0 27.9l13.9 13.9c3.8 3.8 8.9 5.8 13.9 5.8s10.1-1.9 13.9-5.8l111.4-111.4 111.4 111.4c3.9 3.8 8.9 5.8 13.9 5.8s10.1-1.9 13.9-5.8l13.9-13.9c7.7-7.7 7.7-20.2 0-27.9L554.6 515.1 666 403.7c7.7-7.7 7.7-20.2 0-27.9z" fill="#bfbfbf" p-id="5533"></path></svg>