<svg width="100" height="100" viewBox="0 0 100 100" fill="none" xmlns="http://www.w3.org/2000/svg">
<g clip-path="url(#clip0_39_2326)">
<path d="M98.95 18.675C97.8917 18.1583 97.4333 19.1458 96.8167 19.65C96.6042 19.8125 96.425 20.025 96.2458 20.2167C94.6958 21.8708 92.8875 22.9542 90.525 22.825C87.0708 22.6333 84.1208 23.7167 81.5125 26.3583C80.9583 23.1 79.1167 21.1583 76.3167 19.9083C74.85 19.2583 73.3667 18.6125 72.3375 17.2C71.6208 16.1958 71.425 15.075 71.0667 13.975C70.8375 13.3083 70.6083 12.6292 69.8458 12.5167C69.0125 12.3875 68.6875 13.0833 68.3625 13.6667C67.0583 16.05 66.5542 18.675 66.6042 21.3333C66.7167 27.3167 69.2417 32.0833 74.2625 35.4708C74.8333 35.8583 74.9792 36.25 74.8 36.8167C74.4583 37.9833 74.05 39.1167 73.6917 40.2875C73.4625 41.0333 73.1208 41.1917 72.3208 40.8708C69.6177 39.7091 67.1623 38.0401 65.0875 35.9542C61.5167 32.5042 58.2917 28.6958 54.2667 25.7125C53.3341 25.0234 52.3765 24.3688 51.3958 23.75C47.2917 19.7625 51.9375 16.4875 53.0125 16.1C54.1375 15.6917 53.4 14.3 49.7667 14.3167C46.1333 14.3333 42.8083 15.5458 38.5708 17.1667C37.9411 17.408 37.2933 17.5988 36.6333 17.7375C32.6735 16.9914 28.6235 16.8481 24.6208 17.3125C16.7667 18.1875 10.4958 21.9042 5.88333 28.2417C0.341666 35.8583 -0.9625 44.5167 0.633334 53.5417C2.3125 63.0583 7.17083 70.9375 14.6333 77.0958C22.375 83.4833 31.2875 86.6125 41.4583 86.0125C47.6333 85.6583 54.5125 84.8292 62.2667 78.2625C64.225 79.2375 66.275 79.625 69.6833 79.9167C72.3083 80.1625 74.8333 79.7917 76.7875 79.3833C79.85 78.7333 79.6375 75.8958 78.5333 75.3792C69.5542 71.1958 71.525 72.9 69.7292 71.5208C74.2958 66.1208 81.1708 60.5125 83.8625 42.3417C84.0708 40.8958 83.8917 39.9875 83.8625 38.8208C83.8458 38.1125 84.0083 37.8333 84.8208 37.7542C87.0752 37.5203 89.262 36.848 91.2583 35.775C97.075 32.5958 99.425 27.3792 99.9792 21.1208C100.063 20.1625 99.9625 19.1792 98.95 18.675ZM48.2542 75C39.55 68.1583 35.3292 65.9042 33.5875 66C31.9542 66.1 32.25 67.9625 32.6083 69.1792C32.9833 70.3792 33.4708 71.2042 34.1542 72.2583C34.6292 72.9542 34.9542 73.9917 33.6833 74.7708C30.8792 76.5042 26.0083 74.1875 25.7792 74.075C20.1083 70.7333 15.3625 66.325 12.025 60.2958C8.8 54.4917 6.925 48.2667 6.61667 41.6208C6.53333 40.0125 7.00417 39.4458 8.60417 39.1542C10.7046 38.7522 12.8568 38.6973 14.975 38.9917C23.8583 40.2917 31.4167 44.2625 37.7583 50.55C41.375 54.1333 44.1125 58.4125 46.9333 62.5958C49.9333 67.0375 53.1583 71.2708 57.2667 74.7375C58.7167 75.9542 59.8708 76.8792 60.9792 77.5583C57.6375 77.9333 52.0625 78.0167 48.2542 75ZM52.4208 48.1667C52.4201 47.9597 52.4698 47.7556 52.5656 47.5722C52.6614 47.3887 52.8004 47.2313 52.9706 47.1135C53.1408 46.9958 53.3372 46.9213 53.5427 46.8964C53.7481 46.8716 53.9566 46.8971 54.15 46.9708C54.3965 47.0593 54.6093 47.2224 54.7586 47.4375C54.908 47.6526 54.9866 47.909 54.9833 48.1708C54.9839 48.34 54.9508 48.5076 54.8859 48.6639C54.821 48.8202 54.7257 48.962 54.6055 49.081C54.4853 49.2001 54.3426 49.294 54.1857 49.3574C54.0288 49.4207 53.8608 49.4522 53.6917 49.45C53.5238 49.4506 53.3574 49.4176 53.2024 49.3531C53.0473 49.2887 52.9067 49.1939 52.7888 49.0744C52.6708 48.9549 52.5779 48.813 52.5154 48.6572C52.453 48.5013 52.4181 48.3346 52.4208 48.1667ZM65.3792 54.8167C64.5458 55.1542 63.7167 55.4458 62.9208 55.4833C61.7235 55.5251 60.5487 55.1511 59.5958 54.425C58.4542 53.4667 57.6375 52.9333 57.2958 51.2667C57.178 50.4522 57.2006 49.6235 57.3625 48.8167C57.6542 47.4542 57.3292 46.5792 56.3667 45.7875C55.5875 45.1375 54.5917 44.9583 53.5 44.9583C53.1262 44.9366 52.7632 44.8251 52.4417 44.6333C51.9833 44.4083 51.6083 43.8417 51.9667 43.1417C52.0833 42.9167 52.6333 42.3667 52.7667 42.2667C54.25 41.425 55.9625 41.7 57.5417 42.3333C59.0083 42.9333 60.1167 44.0333 61.7125 45.5917C63.3417 47.4708 63.6375 47.9917 64.5667 49.4C65.3 50.5042 65.9667 51.6375 66.4208 52.9333C66.7 53.7458 66.3417 54.4083 65.3792 54.8167Z" fill="#4D6BFE"/>
</g>
<defs>
<clipPath id="clip0_39_2326">
<rect width="100" height="100" fill="white"/>
</clipPath>
</defs>
</svg>
