<?xml version="1.0" standalone="no"?><!DOCTYPE svg PUBLIC "-//W3C//DTD SVG 1.1//EN" "http://www.w3.org/Graphics/SVG/1.1/DTD/svg11.dtd"><svg t="1738145270877" class="icon" viewBox="0 0 1024 1024" version="1.1" xmlns="http://www.w3.org/2000/svg" p-id="18154" xmlns:xlink="http://www.w3.org/1999/xlink" width="128" height="128"><path d="M896.7168 163.328l-38.1952-38.2464a54.016 54.016 0 0 0-76.3904 0l-37.0176 37.0176 114.5856 114.5856 37.0176-37.0176a54.016 54.016 0 0 0 0-76.3904zM530.7392 101.9904h-358.912c-38.912 0-70.5024 31.5904-70.5024 70.5024v680.3968c0 38.912 31.5392 70.5024 70.5024 70.5024h680.3456c38.912 0 70.5024-31.5904 70.5024-70.5024V494.2336a39.5776 39.5776 0 1 0-79.1552 0v350.0032H178.432V179.1488l352.256 0.0512a38.6048 38.6048 0 0 0 0-77.2096z" fill="#2c2c2c" p-id="18155"></path><path d="M820.3264 316.0576l-114.6368-114.5856L395.776 511.488l0.2048 0.2048-18.8416 109.2608a20.6848 20.6848 0 0 0 23.9104 23.8592l109.056-18.9952 0.256 0.256 310.016-310.016z" fill="#2c2c2c" p-id="18156"></path></svg>